<?xml version="1.0" encoding="UTF-8"?>
<svg version="1.1" xmlns="http://www.w3.org/2000/svg" width="542" height="543">
<path d="M0 0 C27.05955177 22.47206019 38.37501193 55.47901153 41.83984375 89.6328125 C46.90036624 146.34865789 31.97228493 203.95379294 8.58984375 255.3203125 C8.10435059 256.39007324 7.61885742 257.45983398 7.11865234 258.56201172 C-12.58243786 301.56145836 -39.01139026 339.97951521 -71.41015625 374.3203125 C-72.36148438 375.33544922 -72.36148438 375.33544922 -73.33203125 376.37109375 C-78.28420242 381.50012817 -83.82055594 385.91118445 -89.41015625 390.3203125 C-90.03744629 390.81869629 -90.66473633 391.31708008 -91.31103516 391.83056641 C-122.81115251 416.76784282 -122.81115251 416.76784282 -135.41015625 417.3203125 C-138.31804255 416.75698297 -141.05553584 415.86120419 -143.84765625 414.8828125 C-144.9449707 414.51833008 -144.9449707 414.51833008 -146.06445312 414.14648438 C-147.85083062 413.55102521 -149.63117273 412.93751086 -151.41015625 412.3203125 C-151.34765625 410.0703125 -151.34765625 410.0703125 -150.41015625 407.3203125 C-147.38671875 405.390625 -147.38671875 405.390625 -145.46972656 404.41503906 C-141.65997611 402.39003657 -138.26228209 399.73705147 -134.78515625 397.1953125 C-133.99681396 396.62200195 -133.20847168 396.04869141 -132.39624023 395.45800781 C-117.41268762 384.52048611 -102.85517024 373.12565182 -89.41015625 360.3203125 C-88.81122559 359.75006348 -88.21229492 359.17981445 -87.59521484 358.59228516 C-78.7015744 350.06127573 -70.71667196 341.24056427 -63.41015625 331.3203125 C-63.00522949 330.78148437 -62.60030273 330.24265625 -62.18310547 329.6875 C-54.18931607 319.04197105 -47.23254203 307.74142756 -40.41015625 296.3203125 C-39.95608398 295.56234375 -39.50201172 294.804375 -39.03417969 294.0234375 C-17.08604025 257.01611218 -2.84484015 213.62203586 4.58984375 171.3203125 C4.88181641 169.75120117 4.88181641 169.75120117 5.1796875 168.15039062 C8.06370514 152.30714339 8.979425 136.76002864 9.02734375 120.6953125 C9.03351715 119.82110657 9.03969055 118.94690063 9.04605103 118.04620361 C9.19997997 84.230361 0.85253524 51.01472448 -23.41015625 26.3203125 C-24.31121094 25.39992188 -24.31121094 25.39992188 -25.23046875 24.4609375 C-46.41780895 4.46595844 -72.69479265 2.57085145 -100.41015625 3.3203125 C-101.50199219 3.32998047 -102.59382812 3.33964844 -103.71875 3.34960938 C-114.59151197 3.52099591 -122.55750766 4.56855565 -130.70214844 12.22094727 C-134.1319746 15.77326722 -137.29044564 19.49601302 -140.41015625 23.3203125 C-141.61228997 24.71240907 -142.82048844 26.09929517 -144.03515625 27.48046875 C-144.60943359 28.1350708 -145.18371094 28.78967285 -145.77539062 29.46411133 C-146.7959406 30.62289888 -147.8178474 31.78049458 -148.84179688 32.9362793 C-185.12271945 73.92295829 -212.57212805 122.50636496 -232.41015625 173.3203125 C-232.82249512 174.37541016 -233.23483398 175.43050781 -233.65966797 176.51757812 C-243.66238022 202.43800856 -250.55865 228.73332511 -255.20361328 256.08276367 C-255.33857712 256.86948959 -255.47354095 257.65621552 -255.6125946 258.46678162 C-255.86346996 259.94028527 -256.10833988 261.41482922 -256.34602356 262.89051819 C-257.46499828 269.50905598 -257.46499828 269.50905598 -259.41015625 272.3203125 C-263.02883184 273.5265377 -266.33521876 273.42848168 -270.09765625 273.3828125 C-270.79955078 273.37830078 -271.50144531 273.37378906 -272.22460938 273.36914062 C-273.95316163 273.35738177 -275.6816699 273.33944704 -277.41015625 273.3203125 C-276.90922461 264.75031981 -275.63876097 256.57163088 -273.78515625 248.1953125 C-273.38538574 246.37277954 -273.38538574 246.37277954 -272.97753906 244.51342773 C-265.8676892 212.65741923 -255.76445168 182.11103958 -242.41015625 152.3203125 C-241.99797852 151.39814941 -241.58580078 150.47598633 -241.16113281 149.52587891 C-224.87408788 113.42796022 -203.32841382 77.78890143 -176.4453125 48.53515625 C-174.62548456 46.55465253 -172.85449294 44.54404973 -171.09765625 42.5078125 C-158.81369555 28.44479543 -146.09967665 14.89187789 -131.41015625 3.3203125 C-130.57871094 2.61003906 -129.74726563 1.89976563 -128.890625 1.16796875 C-128.07207031 0.47574219 -127.25351563 -0.21648438 -126.41015625 -0.9296875 C-125.70890625 -1.53296875 -125.00765625 -2.13625 -124.28515625 -2.7578125 C-115.74638244 -8.46579717 -106.2187119 -11.05467133 -96.34790039 -13.41992188 C-94.21255588 -13.9321102 -92.08181355 -14.46080913 -89.95117188 -14.9921875 C-58.95537278 -22.60710424 -25.75947441 -20.42771287 0 0 Z " fill="#5494E2" transform="translate(336.41015625,53.6796875)"/>
<path d="M0 0 C33.61913488 -0.83774659 70.23524634 11.00522196 95.48046875 33.66015625 C100.60558125 38.65076995 104.47978792 43.82929449 107.79296875 50.16015625 C108.22867188 50.97871094 108.664375 51.79726563 109.11328125 52.640625 C114.19035137 63.44935604 116.40059787 75.53416775 118.79296875 87.16015625 C118.97666016 88.04977051 119.16035156 88.93938477 119.34960938 89.85595703 C124.86773112 118.29846701 123.64108122 150.72826671 118.79296875 179.16015625 C118.58897461 180.36994141 118.38498047 181.57972656 118.17480469 182.82617188 C111.60759102 220.81468299 100.54649133 257.95539353 84.79296875 293.16015625 C84.30602539 294.25602051 83.81908203 295.35188477 83.31738281 296.48095703 C61.48278982 345.3504956 33.04632014 391.60768088 -3.80029297 430.65185547 C-5.18695523 432.1386308 -6.54681536 433.64541387 -7.8984375 435.1640625 C-12.09586151 439.87414898 -16.28840716 444.32846939 -21.125 448.3828125 C-22.60028854 449.64220515 -24.03735521 450.94700775 -25.4453125 452.28125 C-60.87332552 485.83593107 -60.87332552 485.83593107 -79.14453125 486.72265625 C-85.36837819 486.53889697 -89.97602965 484.40059972 -95.20703125 481.16015625 C-94.60470892 477.51882211 -94.26952539 477.20865799 -91.1015625 474.75 C-89.74706189 473.85645156 -88.38589976 472.97294924 -87.01953125 472.09765625 C-57.78041662 452.66583479 -30.96575034 427.66501594 -9.20703125 400.16015625 C-8.30254717 399.0571433 -7.39618356 397.95566982 -6.48828125 396.85546875 C53.13381072 324.21532229 92.85322424 222.25401535 83.97265625 127.41650391 C80.19965774 92.67180351 69.50131947 56.33957472 41.53125 33.296875 C20.88129102 17.90326921 -3.52505849 14.51850335 -28.6328125 17.78515625 C-44.63777435 20.30780861 -60.8808952 25.41960188 -75.43847656 32.5234375 C-76.02209961 32.73355469 -76.60572266 32.94367187 -77.20703125 33.16015625 C-77.86703125 32.83015625 -78.52703125 32.50015625 -79.20703125 32.16015625 C-58.17423183 11.72518833 -28.92452469 1.44446469 0 0 Z " fill="#5495E2" transform="translate(323.20703125,-0.16015625)"/>
<path d="M0 0 C4.19383137 4.69309701 6.87956585 10.07382203 9.75 15.625 C10.277146 16.64319824 10.80429199 17.66139648 11.34741211 18.71044922 C26.94958178 49.22991967 28.77293578 69.95306519 18.21585083 102.59637451 C-6.44586196 177.87378333 -44.1025309 249.1311085 -95 310 C-95.73766602 310.88631104 -95.73766602 310.88631104 -96.49023438 311.79052734 C-112.06836828 330.45205024 -128.85462724 347.96244668 -148 363 C-149.38411959 364.1028583 -150.76823373 365.20572344 -152.15234375 366.30859375 C-159.36032204 372.01785274 -166.62479795 377.60596871 -174.25 382.75 C-174.84522461 383.15597412 -175.44044922 383.56194824 -176.05371094 383.98022461 C-181.92331393 387.85171831 -186.65576162 389.51803842 -193.56640625 388.55078125 C-197.11369406 387.74794404 -200.35551212 386.41943708 -203.69140625 384.98828125 C-206.41098625 383.82406173 -209.18016078 382.89047554 -212 382 C-208.98389456 378.77464323 -205.79387952 376.38494457 -202.125 373.9375 C-186.42821248 363.27780802 -171.97450924 350.8012371 -158 338 C-157.47873535 337.52385254 -156.9574707 337.04770508 -156.42041016 336.55712891 C-148.23889982 329.07858723 -140.18419577 321.63206958 -132.94140625 313.22265625 C-130.71195939 310.67023117 -128.41998618 308.18112486 -126.125 305.6875 C-121.67476739 300.79625335 -117.4125952 295.79914594 -113.29736328 290.62304688 C-112.39308258 289.49176006 -111.48205907 288.3658442 -110.56591797 287.24414062 C-56.49000354 221.00071641 -20.55275781 137.26866998 -1.21777344 3.78295898 C-1 2 -1 2 0 0 Z " fill="#5592E3" transform="translate(481,115)"/>
<path d="M0 0 C25.94992721 21.44308428 38.5933746 51.97161522 41.94140625 84.95703125 C48.4357283 161.04555802 18.40923225 242.26831106 -30.20068359 300.32617188 C-32.32161274 302.81864534 -34.47479492 305.28277751 -36.625 307.75 C-38.30152836 309.74202889 -39.9640126 311.74495092 -41.625 313.75 C-42.91460559 309.88118324 -42.03690666 308.81184917 -40.44921875 305.11328125 C-38.40105018 300.01086337 -36.79810472 295.01253186 -35.51953125 289.66796875 C-35.35151505 288.96740356 -35.18349884 288.26683838 -35.01039124 287.54504395 C-34.66395363 286.09165693 -34.31874238 284.63797709 -33.97470093 283.184021 C-28.84842377 261.74643837 -20.58357888 242.68436707 -10.95922852 222.89428711 C0.26561304 199.63490154 7.19477944 175.38450511 10.375 149.75 C10.4685376 149.06728027 10.5620752 148.38456055 10.65844727 147.68115234 C15.13558843 110.64701439 12.70930957 66.77552511 -9.88671875 35.6328125 C-12.05251254 32.91913539 -14.29292537 30.32126177 -16.625 27.75 C-17.43324219 26.80253906 -17.43324219 26.80253906 -18.2578125 25.8359375 C-33.9857609 8.52729077 -58.37362208 3.17974816 -80.625 0.75 C-78.99651712 -6.22921233 -76.67930144 -10.30329352 -70.625 -14.25 C-49.85471506 -24.88843863 -16.99157402 -12.63010048 0 0 Z " fill="#5495E2" transform="translate(276.625,88.25)"/>
<path d="M0 0 C22.94344818 7.69039856 39.66768567 21.75740156 50.70996094 43.21289062 C61.10985385 64.6289664 64.06012002 87.70174618 64.0078125 111.23828125 C64.00726868 112.16025299 64.00672485 113.08222473 64.00616455 114.03213501 C63.9408353 138.21832885 60.42615331 160.87433783 53.6328125 184.11328125 C51.72631836 183.83911133 51.72631836 183.83911133 49.6328125 183.11328125 C48.37782677 180.08231049 47.47892908 177.26891028 46.6328125 174.11328125 C46.31940918 172.98486816 46.00600586 171.85645508 45.68310547 170.69384766 C44.79896546 167.45397042 43.93965247 164.20987837 43.09838867 160.95874023 C42.57529887 158.94497751 42.04080079 156.93447 41.50585938 154.92382812 C37.50810916 139.68330365 36.22940905 124.67883168 35.60375977 109.00756836 C35.25727628 100.5776702 34.68229538 92.30456245 33.23046875 83.984375 C33.05524437 82.97566597 33.05524437 82.97566597 32.8764801 81.94657898 C28.50124512 58.66460277 14.68829098 38.57195964 -4.4765625 24.92578125 C-10.13876625 21.37542646 -16.50263034 17.94128369 -23.3671875 19.11328125 C-26.07019556 20.75439329 -26.47009862 22.38085016 -27.6171875 25.36328125 C-28.47451857 29.6499366 -28.77949804 31.95068178 -27.3671875 36.11328125 C-24.63406914 38.82821922 -21.54095016 40.94356387 -18.3671875 43.11328125 C-5.61175855 51.91540088 1.52998513 64.17821495 7.6328125 78.11328125 C7.6328125 78.77328125 7.6328125 79.43328125 7.6328125 80.11328125 C3.70028002 78.75362906 1.03135347 77.00311179 -2.1171875 74.30078125 C-7.10064433 70.12066855 -12.195352 66.12042942 -17.3671875 62.17578125 C-18.10936523 61.60819092 -18.85154297 61.04060059 -19.61621094 60.45581055 C-25.48558289 55.65050928 -25.48558289 55.65050928 -32.5546875 53.48828125 C-33.8128125 53.36453125 -35.0709375 53.24078125 -36.3671875 53.11328125 C-36.60425919 53.95849335 -36.84133087 54.80370544 -37.08558655 55.67453003 C-37.61797692 57.57261745 -38.15036944 59.47070426 -38.68279076 61.368783 C-39.77167636 65.25071836 -40.86036061 69.13271005 -41.94874573 73.01478577 C-44.21309268 81.0905312 -46.47890923 89.16585402 -48.75072861 97.239501 C-50.08082933 101.96670148 -51.40982461 106.69421225 -52.73828125 111.421875 C-53.00869232 112.3841482 -53.27910339 113.34642139 -53.55770874 114.33785439 C-57.43642354 128.14836976 -61.25928808 141.9733422 -65.04489708 155.80964661 C-66.60052031 161.4871539 -68.16633603 167.16185908 -69.73260593 172.83643723 C-71.23607164 178.28813824 -72.72250699 183.74413395 -74.19732952 189.20364857 C-75.11883802 192.59877195 -76.05631477 195.98932964 -76.99833488 199.37881279 C-77.43220696 200.95283221 -77.85934531 202.52872542 -78.27926826 204.10652351 C-78.85291669 206.25856405 -79.44994468 208.40273994 -80.05322266 210.54663086 C-80.38133942 211.74936142 -80.70945618 212.95209198 -81.04751587 214.19126892 C-82.61310861 217.65779891 -83.93925624 218.58297844 -87.3671875 220.11328125 C-89.49536133 220.45385742 -89.49536133 220.45385742 -91.57421875 220.40625 C-92.32509766 220.39658203 -93.07597656 220.38691406 -93.84960938 220.37695312 C-94.61853516 220.35181641 -95.38746094 220.32667969 -96.1796875 220.30078125 C-96.96794922 220.28724609 -97.75621094 220.27371094 -98.56835938 220.25976562 C-100.50159919 220.22461581 -102.43448432 220.17081486 -104.3671875 220.11328125 C-101.35615862 192.78460959 -94.75592959 166.2599033 -86.3671875 140.11328125 C-86.05700684 139.14551758 -85.74682617 138.17775391 -85.42724609 137.18066406 C-72.29065363 96.76358583 -54.43083487 51.64623084 -27.76171875 18.14453125 C-25.97141155 15.53680087 -24.71116122 12.78736871 -23.3671875 9.92578125 C-18.04344693 -0.89961411 -11.71913798 -3.0861303 0 0 Z " fill="#5495E2" transform="translate(200.3671875,106.88671875)"/>
<path d="M0 0 C1.32 0 2.64 0 4 0 C5.66099576 15.78240475 7.29054834 31.55355078 7.375 47.4375 C7.38853516 48.46407715 7.40207031 49.4906543 7.41601562 50.54833984 C7.29428512 70.96186867 -6.49877782 88.39405994 -17 105 C-17.64598145 106.02577148 -18.29196289 107.05154297 -18.95751953 108.10839844 C-35.69675306 134.6591672 -53.89973511 159.87839117 -74 184 C-74.48887695 184.58797363 -74.97775391 185.17594727 -75.48144531 185.78173828 C-86.80084241 199.34009551 -98.97681784 212.05353844 -111.4375 224.5625 C-112.26572266 225.39539551 -113.09394531 226.22829102 -113.94726562 227.08642578 C-118.80496264 231.93140119 -123.79604425 236.53195719 -129 241 C-130.12187213 241.99766543 -131.241729 242.99760247 -132.359375 244 C-141.76470774 252.35538373 -151.64562107 259.97789086 -161.80566406 267.39306641 C-163.21320488 268.42382227 -164.61192801 269.46679315 -165.99902344 270.52490234 C-170.11154113 273.61313306 -172.67997605 274.75270305 -177.765625 274.5 C-197.56 271.44 -197.56 271.44 -202 267 C-202 266.01 -202 265.02 -202 264 C-200.59375 262.8515625 -200.59375 262.8515625 -198.5 261.625 C-193.81830848 258.66311353 -189.58251093 255.32660773 -185.3125 251.8125 C-180.21497606 247.62095104 -175.0892851 243.48287494 -169.875 239.4375 C-159.43817278 231.2956199 -149.51647322 222.58278293 -139.80859375 213.58984375 C-137.16826654 211.15516094 -134.49653614 208.76126942 -131.8125 206.375 C-125.06620358 200.30982004 -118.6993907 193.96499969 -112.796875 187.07421875 C-110.8253757 184.79842282 -108.78865605 182.59077333 -106.75 180.375 C-101.16713417 174.17076967 -96.05002103 167.63785648 -91 161 C-90.45682129 160.28666504 -89.91364258 159.57333008 -89.35400391 158.83837891 C-80.32454087 146.92031302 -71.9411345 134.66800027 -64 122 C-63.60006836 121.3620752 -63.20013672 120.72415039 -62.78808594 120.06689453 C-60.10826657 115.75911442 -57.53516732 111.39422441 -55 107 C-54.52046875 106.17097168 -54.0409375 105.34194336 -53.546875 104.48779297 C-43.0808168 86.30495981 -33.49248028 67.69295745 -24.00769043 48.98608398 C-23.0711173 47.14016699 -22.13185991 45.29561259 -21.19238281 43.45117188 C-15.18636137 31.65198267 -9.41935477 19.78179421 -4.03125 7.6862793 C-3.64582031 6.82172119 -3.26039063 5.95716309 -2.86328125 5.06640625 C-2.52594971 4.30271729 -2.18861816 3.53902832 -1.84106445 2.75219727 C-1 1 -1 1 0 0 Z " fill="#558FE4" transform="translate(520,248)"/>
<path d="M0 0 C0.33 0 0.66 0 1 0 C-1.14342863 29.78664846 -7.54189037 62.26323905 -28 85 C-28.76892578 85.85779053 -29.53785156 86.71558105 -30.33007812 87.59936523 C-37.40522304 95.40085321 -44.74918617 102.90362018 -52.20776367 110.33813477 C-54.19892777 112.32389676 -56.18463221 114.3150074 -58.16992188 116.30664062 C-64.27534707 122.41559219 -70.37154087 128.45282708 -77 134 C-78.10691505 134.96057548 -79.21240869 135.9227916 -80.31640625 136.88671875 C-86.42300909 142.16838149 -92.59279374 147.36557612 -98.875 152.4375 C-99.46869385 152.92114014 -100.0623877 153.40478027 -100.67407227 153.90307617 C-107.59216379 159.44159 -113.26690479 163.9843259 -122.4296875 163.6328125 C-131.34663226 162.05234746 -139.95657837 158.08657712 -148 154 C-147.53851563 153.64397705 -147.07703125 153.2879541 -146.6015625 152.92114258 C-120.71589656 132.92817455 -96.07091607 112.08897551 -72.875 89 C-71.84560303 87.9776123 -71.84560303 87.9776123 -70.79541016 86.93457031 C-66.89960195 83.02633986 -63.19040017 79.00831421 -59.58544922 74.83056641 C-57.48243637 72.40241884 -55.30460223 70.04690107 -53.125 67.6875 C-48.20428524 62.28508877 -43.57201122 56.69834138 -39 51 C-38.04084331 49.82122489 -37.08118197 48.64286028 -36.12109375 47.46484375 C-30.8934925 41.02426381 -25.85185981 34.5131478 -21.09033203 27.72070312 C-17.01232452 21.93716999 -12.72984471 16.31302992 -8.4375 10.6875 C-7.72174805 9.74890137 -7.00599609 8.81030273 -6.26855469 7.84326172 C-1.14488106 1.14488106 -1.14488106 1.14488106 0 0 Z " fill="#568BE5" transform="translate(519,380)"/>
<path d="M0 0 C0.99 0.33 1.98 0.66 3 1 C2.77183594 1.56847656 2.54367188 2.13695312 2.30859375 2.72265625 C0.41920465 7.79774177 -0.95551403 11.72011211 1 17 C3.74258821 19.70618217 6.82550977 21.82978523 10 24 C22.75542895 32.80211963 29.89717263 45.0649337 36 59 C36 59.66 36 60.32 36 61 C32.06746752 59.64034781 29.39854097 57.88983054 26.25 55.1875 C21.26654317 51.0073873 16.1718355 47.00714817 11 43.0625 C10.25782227 42.49490967 9.51564453 41.92731934 8.75097656 41.3425293 C2.88160461 36.53722803 2.88160461 36.53722803 -4.1875 34.375 C-5.445625 34.25125 -6.70375 34.1275 -8 34 C-8.23707169 34.8452121 -8.47414337 35.69042419 -8.71839905 36.56124878 C-9.25078942 38.4593362 -9.78318194 40.35742301 -10.31560326 42.25550175 C-11.40448886 46.13743711 -12.49317311 50.0194288 -13.58155823 53.90150452 C-15.84590518 61.97724995 -18.11172173 70.05257277 -20.38354111 78.12621975 C-21.71364183 82.85342023 -23.04263711 87.580931 -24.37109375 92.30859375 C-24.64150482 93.27086695 -24.91191589 94.23314014 -25.19052124 95.22457314 C-29.06923604 109.03508851 -32.89210058 122.86006095 -36.67770958 136.69636536 C-38.23333281 142.37387265 -39.79914853 148.04857783 -41.36541843 153.72315598 C-42.86888414 159.17485699 -44.35531949 164.6308527 -45.83014202 170.09036732 C-46.75165052 173.4854907 -47.68912727 176.87604839 -48.63114738 180.26553154 C-49.06501946 181.83955096 -49.49215781 183.41544417 -49.91208076 184.99324226 C-50.48572919 187.1452828 -51.08275718 189.28945869 -51.68603516 191.43334961 C-52.01415192 192.63608017 -52.34226868 193.83881073 -52.68032837 195.07798767 C-54.24592111 198.54451766 -55.57206874 199.46969719 -59 201 C-61.12817383 201.34057617 -61.12817383 201.34057617 -63.20703125 201.29296875 C-63.95791016 201.28330078 -64.70878906 201.27363281 -65.48242188 201.26367188 C-66.25134766 201.23853516 -67.02027344 201.21339844 -67.8125 201.1875 C-68.60076172 201.17396484 -69.38902344 201.16042969 -70.20117188 201.14648438 C-72.13441169 201.11133456 -74.06729682 201.05753361 -76 201 C-72.98897112 173.67132834 -66.38874209 147.14662205 -58 121 C-57.68981934 120.03223633 -57.37963867 119.06447266 -57.06005859 118.06738281 C-44.94780738 80.80187379 -27.9975093 45.09184493 -8 11.4375 C-7.4755127 10.55336426 -7.4755127 10.55336426 -6.94042969 9.65136719 C-4.85963348 6.21714171 -2.57140406 3.08224102 0 0 Z " fill="#597CEB" transform="translate(172,126)"/>
<path d="M0 0 C-1.52455283 3.65726061 -3.70697981 5.84997926 -6.5625 8.5625 C-10.92465906 12.83051175 -14.82235307 17.27890971 -18.6015625 22.06640625 C-20.62191634 24.53755565 -22.69911619 26.90436419 -24.8359375 29.2734375 C-28.79441835 33.70570448 -32.447015 38.30125591 -36 43.0625 C-36.63446045 43.91175049 -37.2689209 44.76100098 -37.92260742 45.63598633 C-54.8520729 68.54348158 -69.16897626 92.61144617 -82 118 C-82.37898438 118.74717285 -82.75796875 119.4943457 -83.1484375 120.26416016 C-97.41379952 148.65410759 -108.31561143 180.16823777 -113.20703125 211.6015625 C-113.31387741 212.27852173 -113.42072357 212.95548096 -113.5308075 213.6529541 C-114.07021594 217.07716348 -114.59022085 220.50218098 -115.07495117 223.93457031 C-115.26677979 225.19108398 -115.4586084 226.44759766 -115.65625 227.7421875 C-115.81931641 228.8751123 -115.98238281 230.00803711 -116.15039062 231.17529297 C-117 234 -117 234 -118.88183594 235.87280273 C-121.90073695 237.47933408 -124.35913245 237.28922603 -127.75 237.1875 C-128.92046875 237.16042969 -130.0909375 237.13335937 -131.296875 237.10546875 C-132.18890625 237.07066406 -133.0809375 237.03585937 -134 237 C-134.2713674 230.14180559 -133.26404082 223.84452489 -131.9375 217.125 C-131.71416992 215.98804688 -131.49083984 214.85109375 -131.26074219 213.6796875 C-120.34736248 159.75125878 -98.04596007 107.13339348 -65 63 C-64.60248535 62.46503906 -64.2049707 61.93007812 -63.79541016 61.37890625 C-54.95788881 49.51493394 -45.32162894 38.39173492 -35.25 27.5625 C-34.64841064 26.91240967 -34.04682129 26.26231934 -33.42700195 25.5925293 C-29.19436687 21.08801524 -24.71330523 16.99507011 -20 13 C-19.44683105 12.52570557 -18.89366211 12.05141113 -18.32373047 11.56274414 C-16.82704169 10.28352899 -15.31995946 9.01650491 -13.8125 7.75 C-12.33716797 6.50476563 -12.33716797 6.50476563 -10.83203125 5.234375 C-4.19755245 0 -4.19755245 0 0 0 Z " fill="#5A7AEC" transform="translate(162,90)"/>
<path d="M0 0 C0 3 0 3 -1.28515625 4.54296875 C-1.87167969 5.08566406 -2.45820312 5.62835938 -3.0625 6.1875 C-6.96426581 9.9335067 -10.48777125 13.88979884 -14 18 C-14.81339844 18.93585938 -15.62679687 19.87171875 -16.46484375 20.8359375 C-57.53527697 68.36747853 -89.32640774 128.60123973 -96.91113281 191.45141602 C-98.02810954 200.3800697 -98.02810954 200.3800697 -100 204 C-103.73844251 206.73544574 -106.39596601 207.17419818 -110.875 206.6875 C-112.25089407 206.46376384 -113.6260648 206.23546643 -115 206 C-114.56858088 196.29653035 -112.66128048 187.14415781 -110.375 177.75 C-110.19570953 177.00500244 -110.01641907 176.26000488 -109.83169556 175.49243164 C-108.58540038 170.32038599 -107.30524843 165.15746737 -106 160 C-105.70818848 158.84693359 -105.41637695 157.69386719 -105.11572266 156.50585938 C-92.00979318 105.90393634 -62.91031602 58.68432864 -27 21 C-26.18015625 20.12730469 -25.3603125 19.25460938 -24.515625 18.35546875 C-17.58563414 11.17167249 -9.58008996 3.35041397 0 0 Z " fill="#5A7AEC" transform="translate(115,121)"/>
</svg>
