<?xml version="1.0" encoding="UTF-8"?>
<svg version="1.1" xmlns="http://www.w3.org/2000/svg" width="1546" height="543">
<path d="M0 0 C27.05955177 22.47206019 38.37501193 55.47901153 41.83984375 89.6328125 C46.90036624 146.34865789 31.97228493 203.95379294 8.58984375 255.3203125 C8.10435059 256.39007324 7.61885742 257.45983398 7.11865234 258.56201172 C-12.58243786 301.56145836 -39.01139026 339.97951521 -71.41015625 374.3203125 C-72.36148438 375.33544922 -72.36148438 375.33544922 -73.33203125 376.37109375 C-78.28420242 381.50012817 -83.82055594 385.91118445 -89.41015625 390.3203125 C-90.03744629 390.81869629 -90.66473633 391.31708008 -91.31103516 391.83056641 C-122.81115251 416.76784282 -122.81115251 416.76784282 -135.41015625 417.3203125 C-138.31804255 416.75698297 -141.05553584 415.86120419 -143.84765625 414.8828125 C-144.9449707 414.51833008 -144.9449707 414.51833008 -146.06445312 414.14648438 C-147.85083062 413.55102521 -149.63117273 412.93751086 -151.41015625 412.3203125 C-151.34765625 410.0703125 -151.34765625 410.0703125 -150.41015625 407.3203125 C-147.38671875 405.390625 -147.38671875 405.390625 -145.46972656 404.41503906 C-141.65997611 402.39003657 -138.26228209 399.73705147 -134.78515625 397.1953125 C-133.99681396 396.62200195 -133.20847168 396.04869141 -132.39624023 395.45800781 C-117.41268762 384.52048611 -102.85517024 373.12565182 -89.41015625 360.3203125 C-88.81122559 359.75006348 -88.21229492 359.17981445 -87.59521484 358.59228516 C-78.7015744 350.06127573 -70.71667196 341.24056427 -63.41015625 331.3203125 C-63.00522949 330.78148437 -62.60030273 330.24265625 -62.18310547 329.6875 C-54.18931607 319.04197105 -47.23254203 307.74142756 -40.41015625 296.3203125 C-39.95608398 295.56234375 -39.50201172 294.804375 -39.03417969 294.0234375 C-17.08604025 257.01611218 -2.84484015 213.62203586 4.58984375 171.3203125 C4.88181641 169.75120117 4.88181641 169.75120117 5.1796875 168.15039062 C8.06370514 152.30714339 8.979425 136.76002864 9.02734375 120.6953125 C9.03351715 119.82110657 9.03969055 118.94690063 9.04605103 118.04620361 C9.19997997 84.230361 0.85253524 51.01472448 -23.41015625 26.3203125 C-24.31121094 25.39992188 -24.31121094 25.39992188 -25.23046875 24.4609375 C-46.41780895 4.46595844 -72.69479265 2.57085145 -100.41015625 3.3203125 C-101.50199219 3.32998047 -102.59382812 3.33964844 -103.71875 3.34960938 C-114.59151197 3.52099591 -122.55750766 4.56855565 -130.70214844 12.22094727 C-134.1319746 15.77326722 -137.29044564 19.49601302 -140.41015625 23.3203125 C-141.61228997 24.71240907 -142.82048844 26.09929517 -144.03515625 27.48046875 C-144.60943359 28.1350708 -145.18371094 28.78967285 -145.77539062 29.46411133 C-146.7959406 30.62289888 -147.8178474 31.78049458 -148.84179688 32.9362793 C-185.12271945 73.92295829 -212.57212805 122.50636496 -232.41015625 173.3203125 C-232.82249512 174.37541016 -233.23483398 175.43050781 -233.65966797 176.51757812 C-243.66238022 202.43800856 -250.55865 228.73332511 -255.20361328 256.08276367 C-255.33857712 256.86948959 -255.47354095 257.65621552 -255.6125946 258.46678162 C-255.86346996 259.94028527 -256.10833988 261.41482922 -256.34602356 262.89051819 C-257.46499828 269.50905598 -257.46499828 269.50905598 -259.41015625 272.3203125 C-263.02883184 273.5265377 -266.33521876 273.42848168 -270.09765625 273.3828125 C-270.79955078 273.37830078 -271.50144531 273.37378906 -272.22460938 273.36914062 C-273.95316163 273.35738177 -275.6816699 273.33944704 -277.41015625 273.3203125 C-276.90922461 264.75031981 -275.63876097 256.57163088 -273.78515625 248.1953125 C-273.38538574 246.37277954 -273.38538574 246.37277954 -272.97753906 244.51342773 C-265.8676892 212.65741923 -255.76445168 182.11103958 -242.41015625 152.3203125 C-241.99797852 151.39814941 -241.58580078 150.47598633 -241.16113281 149.52587891 C-224.87408788 113.42796022 -203.32841382 77.78890143 -176.4453125 48.53515625 C-174.62548456 46.55465253 -172.85449294 44.54404973 -171.09765625 42.5078125 C-158.81369555 28.44479543 -146.09967665 14.89187789 -131.41015625 3.3203125 C-130.57871094 2.61003906 -129.74726563 1.89976563 -128.890625 1.16796875 C-128.07207031 0.47574219 -127.25351563 -0.21648438 -126.41015625 -0.9296875 C-125.70890625 -1.53296875 -125.00765625 -2.13625 -124.28515625 -2.7578125 C-115.74638244 -8.46579717 -106.2187119 -11.05467133 -96.34790039 -13.41992188 C-94.21255588 -13.9321102 -92.08181355 -14.46080913 -89.95117188 -14.9921875 C-58.95537278 -22.60710424 -25.75947441 -20.42771287 0 0 Z " fill="#5494E2" transform="translate(336.41015625,53.6796875)"/>
<path d="M0 0 C33.61913488 -0.83774659 70.23524634 11.00522196 95.48046875 33.66015625 C100.60558125 38.65076995 104.47978792 43.82929449 107.79296875 50.16015625 C108.22867188 50.97871094 108.664375 51.79726563 109.11328125 52.640625 C114.19035137 63.44935604 116.40059787 75.53416775 118.79296875 87.16015625 C118.97666016 88.04977051 119.16035156 88.93938477 119.34960938 89.85595703 C124.86773112 118.29846701 123.64108122 150.72826671 118.79296875 179.16015625 C118.58897461 180.36994141 118.38498047 181.57972656 118.17480469 182.82617188 C111.60759102 220.81468299 100.54649133 257.95539353 84.79296875 293.16015625 C84.30602539 294.25602051 83.81908203 295.35188477 83.31738281 296.48095703 C61.48278982 345.3504956 33.04632014 391.60768088 -3.80029297 430.65185547 C-5.18695523 432.1386308 -6.54681536 433.64541387 -7.8984375 435.1640625 C-12.09586151 439.87414898 -16.28840716 444.32846939 -21.125 448.3828125 C-22.60028854 449.64220515 -24.03735521 450.94700775 -25.4453125 452.28125 C-60.87332552 485.83593107 -60.87332552 485.83593107 -79.14453125 486.72265625 C-85.36837819 486.53889697 -89.97602965 484.40059972 -95.20703125 481.16015625 C-94.60470892 477.51882211 -94.26952539 477.20865799 -91.1015625 474.75 C-89.74706189 473.85645156 -88.38589976 472.97294924 -87.01953125 472.09765625 C-57.78041662 452.66583479 -30.96575034 427.66501594 -9.20703125 400.16015625 C-8.30254717 399.0571433 -7.39618356 397.95566982 -6.48828125 396.85546875 C53.13381072 324.21532229 92.85322424 222.25401535 83.97265625 127.41650391 C80.19965774 92.67180351 69.50131947 56.33957472 41.53125 33.296875 C20.88129102 17.90326921 -3.52505849 14.51850335 -28.6328125 17.78515625 C-44.63777435 20.30780861 -60.8808952 25.41960188 -75.43847656 32.5234375 C-76.02209961 32.73355469 -76.60572266 32.94367187 -77.20703125 33.16015625 C-77.86703125 32.83015625 -78.52703125 32.50015625 -79.20703125 32.16015625 C-58.17423183 11.72518833 -28.92452469 1.44446469 0 0 Z " fill="#5495E2" transform="translate(323.20703125,-0.16015625)"/>
<path d="M0 0 C4.19383137 4.69309701 6.87956585 10.07382203 9.75 15.625 C10.277146 16.64319824 10.80429199 17.66139648 11.34741211 18.71044922 C26.94958178 49.22991967 28.77293578 69.95306519 18.21585083 102.59637451 C-6.44586196 177.87378333 -44.1025309 249.1311085 -95 310 C-95.73766602 310.88631104 -95.73766602 310.88631104 -96.49023438 311.79052734 C-112.06836828 330.45205024 -128.85462724 347.96244668 -148 363 C-149.38411959 364.1028583 -150.76823373 365.20572344 -152.15234375 366.30859375 C-159.36032204 372.01785274 -166.62479795 377.60596871 -174.25 382.75 C-174.84522461 383.15597412 -175.44044922 383.56194824 -176.05371094 383.98022461 C-181.92331393 387.85171831 -186.65576162 389.51803842 -193.56640625 388.55078125 C-197.11369406 387.74794404 -200.35551212 386.41943708 -203.69140625 384.98828125 C-206.41098625 383.82406173 -209.18016078 382.89047554 -212 382 C-208.98389456 378.77464323 -205.79387952 376.38494457 -202.125 373.9375 C-186.42821248 363.27780802 -171.97450924 350.8012371 -158 338 C-157.47873535 337.52385254 -156.9574707 337.04770508 -156.42041016 336.55712891 C-148.23889982 329.07858723 -140.18419577 321.63206958 -132.94140625 313.22265625 C-130.71195939 310.67023117 -128.41998618 308.18112486 -126.125 305.6875 C-121.67476739 300.79625335 -117.4125952 295.79914594 -113.29736328 290.62304688 C-112.39308258 289.49176006 -111.48205907 288.3658442 -110.56591797 287.24414062 C-56.49000354 221.00071641 -20.55275781 137.26866998 -1.21777344 3.78295898 C-1 2 -1 2 0 0 Z " fill="#5592E3" transform="translate(481,115)"/>
<path d="M0 0 C25.94992721 21.44308428 38.5933746 51.97161522 41.94140625 84.95703125 C48.4357283 161.04555802 18.40923225 242.26831106 -30.20068359 300.32617188 C-32.32161274 302.81864534 -34.47479492 305.28277751 -36.625 307.75 C-38.30152836 309.74202889 -39.9640126 311.74495092 -41.625 313.75 C-42.91460559 309.88118324 -42.03690666 308.81184917 -40.44921875 305.11328125 C-38.40105018 300.01086337 -36.79810472 295.01253186 -35.51953125 289.66796875 C-35.35151505 288.96740356 -35.18349884 288.26683838 -35.01039124 287.54504395 C-34.66395363 286.09165693 -34.31874238 284.63797709 -33.97470093 283.184021 C-28.84842377 261.74643837 -20.58357888 242.68436707 -10.95922852 222.89428711 C0.26561304 199.63490154 7.19477944 175.38450511 10.375 149.75 C10.4685376 149.06728027 10.5620752 148.38456055 10.65844727 147.68115234 C15.13558843 110.64701439 12.70930957 66.77552511 -9.88671875 35.6328125 C-12.05251254 32.91913539 -14.29292537 30.32126177 -16.625 27.75 C-17.43324219 26.80253906 -17.43324219 26.80253906 -18.2578125 25.8359375 C-33.9857609 8.52729077 -58.37362208 3.17974816 -80.625 0.75 C-78.99651712 -6.22921233 -76.67930144 -10.30329352 -70.625 -14.25 C-49.85471506 -24.88843863 -16.99157402 -12.63010048 0 0 Z " fill="#5495E2" transform="translate(276.625,88.25)"/>
<path d="M0 0 C22.94344818 7.69039856 39.66768567 21.75740156 50.70996094 43.21289062 C61.10985385 64.6289664 64.06012002 87.70174618 64.0078125 111.23828125 C64.00726868 112.16025299 64.00672485 113.08222473 64.00616455 114.03213501 C63.9408353 138.21832885 60.42615331 160.87433783 53.6328125 184.11328125 C51.72631836 183.83911133 51.72631836 183.83911133 49.6328125 183.11328125 C48.37782677 180.08231049 47.47892908 177.26891028 46.6328125 174.11328125 C46.31940918 172.98486816 46.00600586 171.85645508 45.68310547 170.69384766 C44.79896546 167.45397042 43.93965247 164.20987837 43.09838867 160.95874023 C42.57529887 158.94497751 42.04080079 156.93447 41.50585938 154.92382812 C37.50810916 139.68330365 36.22940905 124.67883168 35.60375977 109.00756836 C35.25727628 100.5776702 34.68229538 92.30456245 33.23046875 83.984375 C33.05524437 82.97566597 33.05524437 82.97566597 32.8764801 81.94657898 C28.50124512 58.66460277 14.68829098 38.57195964 -4.4765625 24.92578125 C-10.13876625 21.37542646 -16.50263034 17.94128369 -23.3671875 19.11328125 C-26.07019556 20.75439329 -26.47009862 22.38085016 -27.6171875 25.36328125 C-28.47451857 29.6499366 -28.77949804 31.95068178 -27.3671875 36.11328125 C-24.63406914 38.82821922 -21.54095016 40.94356387 -18.3671875 43.11328125 C-5.61175855 51.91540088 1.52998513 64.17821495 7.6328125 78.11328125 C7.6328125 78.77328125 7.6328125 79.43328125 7.6328125 80.11328125 C3.70028002 78.75362906 1.03135347 77.00311179 -2.1171875 74.30078125 C-7.10064433 70.12066855 -12.195352 66.12042942 -17.3671875 62.17578125 C-18.10936523 61.60819092 -18.85154297 61.04060059 -19.61621094 60.45581055 C-25.48558289 55.65050928 -25.48558289 55.65050928 -32.5546875 53.48828125 C-33.8128125 53.36453125 -35.0709375 53.24078125 -36.3671875 53.11328125 C-36.60425919 53.95849335 -36.84133087 54.80370544 -37.08558655 55.67453003 C-37.61797692 57.57261745 -38.15036944 59.47070426 -38.68279076 61.368783 C-39.77167636 65.25071836 -40.86036061 69.13271005 -41.94874573 73.01478577 C-44.21309268 81.0905312 -46.47890923 89.16585402 -48.75072861 97.239501 C-50.08082933 101.96670148 -51.40982461 106.69421225 -52.73828125 111.421875 C-53.00869232 112.3841482 -53.27910339 113.34642139 -53.55770874 114.33785439 C-57.43642354 128.14836976 -61.25928808 141.9733422 -65.04489708 155.80964661 C-66.60052031 161.4871539 -68.16633603 167.16185908 -69.73260593 172.83643723 C-71.23607164 178.28813824 -72.72250699 183.74413395 -74.19732952 189.20364857 C-75.11883802 192.59877195 -76.05631477 195.98932964 -76.99833488 199.37881279 C-77.43220696 200.95283221 -77.85934531 202.52872542 -78.27926826 204.10652351 C-78.85291669 206.25856405 -79.44994468 208.40273994 -80.05322266 210.54663086 C-80.38133942 211.74936142 -80.70945618 212.95209198 -81.04751587 214.19126892 C-82.61310861 217.65779891 -83.93925624 218.58297844 -87.3671875 220.11328125 C-89.49536133 220.45385742 -89.49536133 220.45385742 -91.57421875 220.40625 C-92.32509766 220.39658203 -93.07597656 220.38691406 -93.84960938 220.37695312 C-94.61853516 220.35181641 -95.38746094 220.32667969 -96.1796875 220.30078125 C-96.96794922 220.28724609 -97.75621094 220.27371094 -98.56835938 220.25976562 C-100.50159919 220.22461581 -102.43448432 220.17081486 -104.3671875 220.11328125 C-101.35615862 192.78460959 -94.75592959 166.2599033 -86.3671875 140.11328125 C-86.05700684 139.14551758 -85.74682617 138.17775391 -85.42724609 137.18066406 C-72.29065363 96.76358583 -54.43083487 51.64623084 -27.76171875 18.14453125 C-25.97141155 15.53680087 -24.71116122 12.78736871 -23.3671875 9.92578125 C-18.04344693 -0.89961411 -11.71913798 -3.0861303 0 0 Z " fill="#5495E2" transform="translate(200.3671875,106.88671875)"/>
<path d="M0 0 C1.32 0 2.64 0 4 0 C5.66099576 15.78240475 7.29054834 31.55355078 7.375 47.4375 C7.38853516 48.46407715 7.40207031 49.4906543 7.41601562 50.54833984 C7.29428512 70.96186867 -6.49877782 88.39405994 -17 105 C-17.64598145 106.02577148 -18.29196289 107.05154297 -18.95751953 108.10839844 C-35.69675306 134.6591672 -53.89973511 159.87839117 -74 184 C-74.48887695 184.58797363 -74.97775391 185.17594727 -75.48144531 185.78173828 C-86.80084241 199.34009551 -98.97681784 212.05353844 -111.4375 224.5625 C-112.26572266 225.39539551 -113.09394531 226.22829102 -113.94726562 227.08642578 C-118.80496264 231.93140119 -123.79604425 236.53195719 -129 241 C-130.12187213 241.99766543 -131.241729 242.99760247 -132.359375 244 C-141.76470774 252.35538373 -151.64562107 259.97789086 -161.80566406 267.39306641 C-163.21320488 268.42382227 -164.61192801 269.46679315 -165.99902344 270.52490234 C-170.11154113 273.61313306 -172.67997605 274.75270305 -177.765625 274.5 C-197.56 271.44 -197.56 271.44 -202 267 C-202 266.01 -202 265.02 -202 264 C-200.59375 262.8515625 -200.59375 262.8515625 -198.5 261.625 C-193.81830848 258.66311353 -189.58251093 255.32660773 -185.3125 251.8125 C-180.21497606 247.62095104 -175.0892851 243.48287494 -169.875 239.4375 C-159.43817278 231.2956199 -149.51647322 222.58278293 -139.80859375 213.58984375 C-137.16826654 211.15516094 -134.49653614 208.76126942 -131.8125 206.375 C-125.06620358 200.30982004 -118.6993907 193.96499969 -112.796875 187.07421875 C-110.8253757 184.79842282 -108.78865605 182.59077333 -106.75 180.375 C-101.16713417 174.17076967 -96.05002103 167.63785648 -91 161 C-90.45682129 160.28666504 -89.91364258 159.57333008 -89.35400391 158.83837891 C-80.32454087 146.92031302 -71.9411345 134.66800027 -64 122 C-63.60006836 121.3620752 -63.20013672 120.72415039 -62.78808594 120.06689453 C-60.10826657 115.75911442 -57.53516732 111.39422441 -55 107 C-54.52046875 106.17097168 -54.0409375 105.34194336 -53.546875 104.48779297 C-43.0808168 86.30495981 -33.49248028 67.69295745 -24.00769043 48.98608398 C-23.0711173 47.14016699 -22.13185991 45.29561259 -21.19238281 43.45117188 C-15.18636137 31.65198267 -9.41935477 19.78179421 -4.03125 7.6862793 C-3.64582031 6.82172119 -3.26039063 5.95716309 -2.86328125 5.06640625 C-2.52594971 4.30271729 -2.18861816 3.53902832 -1.84106445 2.75219727 C-1 1 -1 1 0 0 Z " fill="#558FE4" transform="translate(520,248)"/>
<path d="M0 0 C22.3738782 -0.64244594 44.74110759 6.2094785 61.37890625 21.53515625 C63.33258011 23.39411232 65.26073176 25.27708743 67.19140625 27.16015625 C68.11179687 27.99546875 69.0321875 28.83078125 69.98046875 29.69140625 C70.81320312 30.46484375 71.6459375 31.23828125 72.50390625 32.03515625 C73.24253906 32.71320313 73.98117187 33.39125 74.7421875 34.08984375 C76.19140625 36.16015625 76.19140625 36.16015625 76.1875 38.71875 C74.94815383 41.75636316 73.71286286 42.63614414 70.94140625 44.34765625 C69.78898437 45.08048828 69.78898437 45.08048828 68.61328125 45.828125 C62.39872332 49.24613186 62.39872332 49.24613186 58.61328125 48.9765625 C55.91600042 48.06731783 54.5093327 47.03744196 52.44140625 45.09765625 C51.40113281 44.15212891 51.40113281 44.15212891 50.33984375 43.1875 C48.9347091 41.86156385 47.54333963 40.52084729 46.16796875 39.1640625 C33.61711425 27.19642615 17.32533974 22.17940786 0.19140625 22.16015625 C-17.23569379 23.36732313 -32.81433254 32.03125493 -44.6875 44.6015625 C-59.97416032 63.04127246 -65.1539136 83.52029025 -63.80859375 107.16015625 C-62.29846606 121.27461702 -54.9981811 134.54973494 -45.80859375 145.16015625 C-44.69484375 146.67609375 -44.69484375 146.67609375 -43.55859375 148.22265625 C-34.93362401 158.36472164 -19.94629656 166.31600075 -6.80859375 168.16015625 C10.76075666 169.53427458 27.70275291 167.67040101 41.77734375 156.01953125 C45.07093899 153.04009433 48.31136032 150.01339875 51.5 146.921875 C56.85322633 142.14386536 56.85322633 142.14386536 60.4375 142.1875 C66.28028959 143.89881965 71.32073788 147.60215028 76.19140625 151.16015625 C71.45213832 165.08175578 55.58077842 175.86228871 42.98046875 182.29199219 C20.89501508 193.0092238 -3.07612277 193.68776302 -26.17651367 185.7421875 C-50.67816483 176.78758941 -66.77593826 159.11901996 -78.28125 136.23046875 C-87.62063131 115.60957179 -88.978214 90.8662291 -82.80859375 69.16015625 C-82.47988281 67.94714844 -82.15117188 66.73414063 -81.8125 65.484375 C-77.45603113 50.96783685 -69.99037653 38.37114451 -59.80859375 27.16015625 C-59.19757812 26.45632813 -58.5865625 25.7525 -57.95703125 25.02734375 C-43.18131535 8.99412011 -21.29888619 1.2145401 0 0 Z " fill="#221F20" transform="translate(693.80859375,320.83984375)"/>
<path d="M0 0 C13.65804529 12.74750894 20.44687023 30.57392534 21.59765625 49.0078125 C21.47251404 60.13295471 21.47251404 60.13295471 18.59765625 63.0078125 C16.71173668 63.26952553 16.71173668 63.26952553 14.37094116 63.2862854 C13.48470566 63.29744888 12.59847015 63.30861237 11.68537903 63.32011414 C10.22342354 63.32335442 10.22342354 63.32335442 8.73193359 63.32666016 C7.70751663 63.33670578 6.68309967 63.3467514 5.62763977 63.35710144 C2.22963033 63.38807948 -1.16829982 63.40500916 -4.56640625 63.421875 C-6.91768076 63.44057489 -9.26894848 63.46014739 -11.62020874 63.4805603 C-17.81799322 63.53201208 -24.01579949 63.57156788 -30.21368408 63.60870361 C-36.53443855 63.64866165 -42.85510136 63.69979129 -49.17578125 63.75 C-61.58457115 63.84691369 -73.99341265 63.93126888 -86.40234375 64.0078125 C-85.7710435 65.93999596 -85.13646306 67.87110792 -84.50048828 69.80175781 C-84.14745636 70.87725891 -83.79442444 71.95276001 -83.43069458 73.06085205 C-79.66515844 83.85180564 -72.36394124 91.20720668 -62.46875 96.609375 C-52.44569388 101.08909297 -40.35992711 102.23731834 -29.90234375 98.3828125 C-28.37555582 97.64412805 -26.87368231 96.85155355 -25.40234375 96.0078125 C-24.20158203 95.31945312 -24.20158203 95.31945312 -22.9765625 94.6171875 C-15.35387776 89.87640158 -10.93102236 83.60057578 -6.40234375 76.0078125 C0.83355598 76.61080414 7.59136501 78.1228712 14.59765625 80.0078125 C13.16544068 91.14003354 6.31260672 99.27923138 -1.40234375 107.0078125 C-1.96695312 107.58402344 -2.5315625 108.16023438 -3.11328125 108.75390625 C-15.62861483 120.50610973 -31.94715308 122.72450684 -48.34765625 122.28125 C-65.23944957 121.52564668 -81.45701781 114.01150322 -93.40234375 102.0078125 C-105.06783326 88.51833752 -110.00778329 72.92981276 -109.83984375 55.2578125 C-109.83154541 54.12182617 -109.82324707 52.98583984 -109.81469727 51.81542969 C-109.42816464 32.47504268 -103.46873477 15.68073804 -89.40234375 2.0078125 C-88.78875 1.37359375 -88.17515625 0.739375 -87.54296875 0.0859375 C-63.80850816 -22.83708854 -24.22293282 -20.08731015 0 0 Z M-77.58203125 18.6875 C-84.15395292 27.0645847 -85.6245047 34.34077819 -87.40234375 45.0078125 C-59.02234375 45.0078125 -30.64234375 45.0078125 -1.40234375 45.0078125 C-2.66553164 32.37593364 -6.39486398 22.60116427 -15.87890625 13.91015625 C-35.39910761 -0.80553735 -60.68429512 0.69517367 -77.58203125 18.6875 Z " fill="#221F20" transform="translate(1305.40234375,388.9921875)"/>
<path d="M0 0 C10.57793994 7.91110285 18.75257721 17.87864699 24 30 C24.44666016 31.02480469 24.44666016 31.02480469 24.90234375 32.0703125 C28.99477874 42.77986874 30.01323994 55.75432637 28 67 C26.45514791 68.54485209 25.00785023 68.14043099 22.85557556 68.15821838 C21.96230057 68.1680072 21.06902557 68.17779602 20.14868164 68.18788147 C18.66730713 68.19651466 18.66730713 68.19651466 17.15600586 68.20532227 C16.12198135 68.21522186 15.08795685 68.22512146 14.02259827 68.23532104 C10.58670381 68.26704213 7.15079549 68.29173524 3.71484375 68.31640625 C1.339723 68.33696663 -1.03539402 68.35796284 -3.4105072 68.37937927 C-9.67572005 68.43469461 -15.94096643 68.48406202 -22.20623779 68.53222656 C-28.59390259 68.58237268 -34.98151842 68.63809462 -41.36914062 68.69335938 C-53.91271834 68.80105661 -66.45633782 68.9026649 -79 69 C-78.40213225 70.90084494 -77.79479636 72.79871325 -77.18359375 74.6953125 C-76.84642334 75.75250488 -76.50925293 76.80969727 -76.16186523 77.89892578 C-74.45028164 82.46722476 -71.93421743 86.13918759 -69 90 C-68.278125 91.03125 -67.55625 92.0625 -66.8125 93.125 C-60.30933296 100.63187128 -50.29179271 105.43380943 -40.52734375 106.3125 C-29.68592737 106.66542505 -19.67405876 104.98852261 -11.08203125 97.98828125 C-7.28209783 94.35945177 -3.79654819 90.44816384 -0.3203125 86.51171875 C2.10914889 83.88184725 2.86495184 83.09788143 6.35546875 82.796875 C12.41287263 82.69661452 16.63629288 83.1393562 22 86 C21.64458674 95.59615803 16.5450532 103.03792763 10.16796875 109.9921875 C-3.8264699 122.95280276 -20.09959599 128.79935877 -39 129 C-56.89471208 127.93811599 -72.04271843 120.6168058 -84.375 107.6875 C-99.55846501 89.94474753 -103.40601476 69.76330035 -102 47 C-99.88300895 29.64212835 -89.52996247 13.97446207 -76.41015625 2.8125 C-54.31973381 -13.80007053 -23.209386 -15.12996063 0 0 Z M-69.8125 24.75 C-76.40298075 32.81712148 -78.13619745 40.749086 -80 51 C-51.62 51 -23.24 51 6 51 C6 39.54328572 1.83588511 30.08491174 -6.10546875 21.8046875 C-15.94021256 12.63010722 -25.9627378 9.44818614 -39.33984375 9.69140625 C-51.5769508 10.72313673 -61.40356521 15.9251394 -69.8125 24.75 Z " fill="#221F20" transform="translate(823,154)"/>
<path d="M0 0 C3.58104052 2.78366217 6.79872837 5.79286523 10 9 C10.62132812 9.55042969 11.24265625 10.10085938 11.8828125 10.66796875 C22.92362919 20.69382247 30.98651747 37.61982824 32.20507812 52.50512695 C32.30383588 55.25699156 32.32910779 57.99642792 32.3125 60.75 C32.30404053 62.21252197 32.30404053 62.21252197 32.29541016 63.70458984 C31.97335539 82.82699015 23.49149034 97.95544388 10.5546875 111.57421875 C0.0705952 121.50208107 -13.39094256 128.9375231 -28 130 C-29.14082031 130.09474609 -29.14082031 130.09474609 -30.3046875 130.19140625 C-47.89863883 131.0006236 -64.08554945 123.49701085 -77 112 C-77.63679687 111.43410156 -78.27359375 110.86820312 -78.9296875 110.28515625 C-91.56299994 98.35369451 -100.49739135 80.3868348 -101.27734375 63.0078125 C-101.82637261 42.4016686 -96.39081972 25.13137363 -82.546875 9.609375 C-59.79283377 -13.70304761 -27.42560859 -18.03743231 0 0 Z M-65.87890625 23.77734375 C-76.60231714 35.10293322 -78.61696607 49.07299848 -78.30859375 64.0078125 C-77.7019147 77.36482101 -71.82745403 88.5759949 -62.375 97.875 C-51.83454621 106.67714807 -40.45963134 108.226308 -27.18408203 107.23925781 C-15.8647013 105.99926305 -7.5131518 100.38772631 -0.25 91.875 C8.93865998 79.41688659 10.63674817 63.67916915 8.5390625 48.7109375 C5.54417398 35.35725812 -1.10413997 23.33075556 -12.625 15.625 C-30.65319588 5.53145332 -51.42524999 10.10496621 -65.87890625 23.77734375 Z " fill="#221F20" transform="translate(879,383)"/>
<path d="M0 0 C13.23491695 13.53571052 18.53880626 27.03675374 18.42977905 45.69126892 C18.39915666 47.6678875 18.36786099 49.64449575 18.3359375 51.62109375 C18.32472016 53.68472549 18.31619201 55.74837342 18.31021118 57.81202698 C18.28751248 63.19306048 18.2287566 68.57309238 18.1619873 73.95373535 C18.10015158 79.46446186 18.07310871 84.97535326 18.04296875 90.48632812 C17.9789914 101.2622253 17.87362538 112.03712192 17.75 122.8125 C10.49 122.8125 3.23 122.8125 -4.25 122.8125 C-4.24045288 118.90809082 -4.24045288 118.90809082 -4.23071289 114.92480469 C-4.21471093 106.28734439 -4.23730217 97.65028775 -4.27846622 89.01292038 C-4.30223566 83.78022346 -4.31334116 78.54816096 -4.29467773 73.31542969 C-4.27711764 68.2575435 -4.29390392 63.20079222 -4.33367729 58.14304352 C-4.34291192 56.2215495 -4.34014308 54.29995599 -4.32469368 52.37850189 C-4.22937009 39.23791785 -5.19853607 30.38622282 -14.52674866 20.36712646 C-20.17229224 14.83895974 -27.26136626 10.61136337 -35.25 9.8125 C-35.8584375 9.74933594 -36.466875 9.68617188 -37.09375 9.62109375 C-46.21773398 9.1086961 -56.23394769 11.90466473 -63.33203125 17.76171875 C-70.35521622 25.27123425 -75.38222813 32.75864454 -75.45532227 43.11767578 C-75.47017166 44.40558517 -75.47017166 44.40558517 -75.48532104 45.71951294 C-75.51698039 48.56558447 -75.54171098 51.41167271 -75.56640625 54.2578125 C-75.58697195 56.22794028 -75.60796832 58.1980636 -75.62937927 60.16818237 C-75.68463961 65.35984702 -75.7340314 70.55155174 -75.78222656 75.74328613 C-75.83241269 81.03852923 -75.88811381 86.33371395 -75.94335938 91.62890625 C-76.05098942 102.02338954 -76.15191414 112.41792227 -76.25 122.8125 C-83.51 122.8125 -90.77 122.8125 -98.25 122.8125 C-98.25 79.9125 -98.25 37.0125 -98.25 -7.1875 C-90.73333048 -10.40892979 -85.94990934 -11.40947643 -78.125 -9.375 C-74.90833185 -5.6222205 -75.88882597 -0.91486671 -76.25 3.8125 C-75.51136719 3.22082031 -74.77273438 2.62914062 -74.01171875 2.01953125 C-50.64902852 -16.17783738 -24.70971017 -16.63153569 0 0 Z " fill="#221F20" transform="translate(1165.25,385.1875)"/>
<path d="M0 0 C6.68249822 5.2257951 11.81580881 10.6422432 16 18 C16.58801895 18.98690323 17.1760379 19.97380646 17.78187561 20.99061584 C23.81489436 32.23757429 23.92032094 42.24513156 23.68359375 54.80859375 C23.67050689 56.87222091 23.66055735 58.93587011 23.65357971 60.99952698 C23.62709707 66.38072802 23.55854975 71.76056586 23.48065186 77.14123535 C23.40851083 82.65191212 23.37696042 88.16281332 23.34179688 93.67382812 C23.26715537 104.44990819 23.14422955 115.22462647 23 126 C15.74 126 8.48 126 1 126 C1.01160156 123.36676758 1.02320313 120.73353516 1.03515625 118.02050781 C1.06778764 109.28327324 1.05620928 100.54649014 1.02334595 91.80926895 C1.00477522 86.51594391 1.00071825 81.22346585 1.03076172 75.93017578 C1.05925119 70.81386592 1.04839919 65.69896445 1.01119995 60.58272552 C1.00380017 58.63888579 1.01015795 56.6949395 1.03103638 54.75119781 C1.17044813 40.5992597 -0.46392718 32.81379449 -10.58203125 22.32281494 C-18.01911161 15.17840442 -25.92786394 13.15156429 -36 13 C-46.03214173 13.7020939 -55.71047361 18.07000007 -62.5625 25.4375 C-67.92256281 31.69667012 -69.53961354 38.13663458 -70.25 46.125 C-70.3329834 47.02822998 -70.4159668 47.93145996 -70.50146484 48.86206055 C-71.18982032 57.75319439 -70.8567807 66.55351237 -70.46459961 75.4519043 C-70.07106066 84.4071147 -69.84932956 93.34455951 -69.82073975 102.3074646 C-69.81529593 103.71473237 -69.80596877 105.12199108 -69.7925415 106.52920532 C-69.77456833 108.49726768 -69.77176848 110.4654506 -69.76953125 112.43359375 C-69.76542236 113.55822021 -69.76131348 114.68284668 -69.75708008 115.84155273 C-70.01621879 119.21087687 -70.69628163 121.88672397 -72 125 C-77.97029685 127.98514842 -85.3250052 126 -92 126 C-92 82.77 -92 39.54 -92 -5 C-85.04004563 -6.98855839 -79.94033603 -8.14926468 -73 -6.125 C-69.76890304 -2.69195948 -70.09406292 1.44222392 -70 6 C-69.58492187 5.64808594 -69.16984375 5.29617188 -68.7421875 4.93359375 C-48.90302594 -10.96263821 -21.70551751 -15.23262211 0 0 Z " fill="#221F20" transform="translate(1022,382)"/>
<path d="M0 0 C3.87272052 3.11645965 7.84110336 6.93585039 9.8828125 11.52734375 C10.01171875 14.74609375 10.01171875 14.74609375 9.8828125 17.52734375 C7.99088775 18.51404134 6.09409272 19.49140395 4.1953125 20.46484375 C2.61169922 21.28275391 2.61169922 21.28275391 0.99609375 22.1171875 C-4.36403245 24.54504893 -4.36403245 24.54504893 -7.1171875 24.52734375 C-9.09453819 22.84158394 -10.63159355 21.28849539 -12.3046875 19.33984375 C-19.60660907 11.43679245 -27.59945325 8.73127594 -38.3046875 8.27734375 C-46.11937182 8.38294759 -54.1051432 10.39511081 -60.1171875 15.52734375 C-63.83136129 19.94419907 -65.20813896 23.8428774 -65.1171875 29.52734375 C-64.12578384 34.68264278 -62.34208263 36.55598893 -58.1171875 39.52734375 C-54.88636484 41.02003252 -54.88636484 41.02003252 -51.2421875 42.27734375 C-50.56091797 42.52629395 -49.87964844 42.77524414 -49.17773438 43.03173828 C-44.9775936 44.55340732 -40.75151692 45.99145719 -36.515625 47.41015625 C-0.61943685 59.48721072 -0.61943685 59.48721072 7.9375 73.59765625 C11.71721288 81.31326849 10.95537811 92.4408421 8.3203125 100.40234375 C3.31354538 112.18400204 -5.21265646 118.52291304 -16.5859375 123.66796875 C-24.00942287 126.18828786 -31.11687833 126.88739171 -38.9296875 126.83984375 C-39.90019043 126.8342041 -40.87069336 126.82856445 -41.87060547 126.82275391 C-57.42415487 126.55957607 -70.62249144 121.70996385 -81.9765625 110.83203125 C-84.84364725 107.74520643 -87.75991069 104.57449642 -89.1171875 100.52734375 C-88.9921875 97.96875 -88.9921875 97.96875 -88.1171875 95.52734375 C-84.6306095 92.55457725 -80.47379677 90.85957459 -76.0546875 89.77734375 C-72.14231327 90.77624781 -70.15284702 92.86030065 -67.23828125 95.58203125 C-57.64872271 104.37687499 -47.12761164 107.15621121 -34.23046875 106.81640625 C-26.21004702 106.07172468 -18.76052342 103.67320877 -13.3046875 97.46484375 C-10.87929228 93.50761997 -10.80346227 90.07635958 -11.1171875 85.52734375 C-13.5470139 79.3009136 -19.28100014 75.90782221 -25.0625 73.09375 C-34.38390808 69.17621061 -44.025105 66.3253689 -53.75341797 63.59423828 C-64.57596415 60.43541069 -76.50734995 54.94665941 -82.6875 45 C-87.18591886 36.24736216 -88.58376191 28.19239183 -85.9921875 18.52734375 C-82.2276171 7.37370959 -75.74754581 -0.58713235 -65.4296875 -6.22265625 C-44.52438171 -15.84926363 -18.82252231 -13.09241865 0 0 Z " fill="#221F20" transform="translate(1069.1171875,154.47265625)"/>
<path d="M0 0 C14.20954324 10.89036749 14.20954324 10.89036749 16.0234375 17.91796875 C16.16458984 19.02205078 16.16458984 19.02205078 16.30859375 20.1484375 C15.33921875 20.3546875 14.36984375 20.5609375 13.37109375 20.7734375 C9.10132666 21.9426435 5.99252547 24.32706775 2.51953125 27.00390625 C0.30859375 28.1484375 0.30859375 28.1484375 -2.2421875 28.0546875 C-5.13472219 26.98440353 -6.26557856 25.7962217 -8.25390625 23.4609375 C-14.93825354 16.43606685 -24.08060791 12.27704501 -33.69140625 11.1484375 C-34.38363281 11.0659375 -35.07585937 10.9834375 -35.7890625 10.8984375 C-46.42239488 10.2808937 -56.11015586 14.55712733 -64.3203125 21.015625 C-74.58069359 30.24489695 -79.35592198 43.04379435 -80.9765625 56.51953125 C-81.55085078 70.12766663 -76.00336375 82.38366124 -67.31640625 92.5234375 C-63.47342465 96.57848999 -59.73153277 99.72681421 -54.69140625 102.1484375 C-53.73234375 102.62410156 -53.73234375 102.62410156 -52.75390625 103.109375 C-42.09166868 107.51158672 -29.60188722 106.03938659 -19.1484375 101.9296875 C-14.57141142 99.57135542 -10.51637252 96.66944334 -6.57177734 93.36376953 C-3.5471175 90.94386005 -2.00608792 90.14571298 1.91796875 90.1796875 C5.16640927 91.10781336 7.37550254 92.09046436 10.12109375 94.0234375 C11.24451172 94.79300781 11.24451172 94.79300781 12.390625 95.578125 C14.30859375 97.1484375 14.30859375 97.1484375 16.30859375 100.1484375 C2.82726366 115.7940817 -11.89245012 126.45918472 -33.06640625 128.46875 C-51.35665692 129.09228127 -68.23259668 122.48948153 -81.69140625 110.1484375 C-94.16046445 98.25452036 -102.24209691 81.45709767 -102.89453125 64.15234375 C-103.23080128 45.11988856 -99.57683602 28.45259763 -87.69140625 13.1484375 C-87.23121094 12.52324219 -86.77101563 11.89804687 -86.296875 11.25390625 C-66.13362442 -14.48764996 -25.96975914 -17.86598814 0 0 Z " fill="#221F20" transform="translate(1439.69140625,383.8515625)"/>
<path d="M0 0 C7.26 0 14.52 0 22 0 C22 53.79 22 107.58 22 163 C48.73 163 75.46 163 103 163 C103 169.6 103 176.2 103 183 C69.01 183 35.02 183 0 183 C0 122.61 0 62.22 0 0 Z " fill="#221F20" transform="translate(613,96)"/>
<path d="M0 0 C0.33 0 0.66 0 1 0 C-1.14342863 29.78664846 -7.54189037 62.26323905 -28 85 C-28.76892578 85.85779053 -29.53785156 86.71558105 -30.33007812 87.59936523 C-37.40522304 95.40085321 -44.74918617 102.90362018 -52.20776367 110.33813477 C-54.19892777 112.32389676 -56.18463221 114.3150074 -58.16992188 116.30664062 C-64.27534707 122.41559219 -70.37154087 128.45282708 -77 134 C-78.10691505 134.96057548 -79.21240869 135.9227916 -80.31640625 136.88671875 C-86.42300909 142.16838149 -92.59279374 147.36557612 -98.875 152.4375 C-99.46869385 152.92114014 -100.0623877 153.40478027 -100.67407227 153.90307617 C-107.59216379 159.44159 -113.26690479 163.9843259 -122.4296875 163.6328125 C-131.34663226 162.05234746 -139.95657837 158.08657712 -148 154 C-147.53851563 153.64397705 -147.07703125 153.2879541 -146.6015625 152.92114258 C-120.71589656 132.92817455 -96.07091607 112.08897551 -72.875 89 C-71.84560303 87.9776123 -71.84560303 87.9776123 -70.79541016 86.93457031 C-66.89960195 83.02633986 -63.19040017 79.00831421 -59.58544922 74.83056641 C-57.48243637 72.40241884 -55.30460223 70.04690107 -53.125 67.6875 C-48.20428524 62.28508877 -43.57201122 56.69834138 -39 51 C-38.04084331 49.82122489 -37.08118197 48.64286028 -36.12109375 47.46484375 C-30.8934925 41.02426381 -25.85185981 34.5131478 -21.09033203 27.72070312 C-17.01232452 21.93716999 -12.72984471 16.31302992 -8.4375 10.6875 C-7.72174805 9.74890137 -7.00599609 8.81030273 -6.26855469 7.84326172 C-1.14488106 1.14488106 -1.14488106 1.14488106 0 0 Z " fill="#568BE5" transform="translate(519,380)"/>
<path d="M0 0 C7.26 0 14.52 0 22 0 C22 13.2 22 26.4 22 40 C26.455 39.505 26.455 39.505 31 39 C33.76355856 38.86644513 36.4878632 38.77141191 39.25 38.75 C39.930625 38.729375 40.61125 38.70875 41.3125 38.6875 C45.72683983 38.65328031 48.58806889 39.13597024 52 42 C54.09934766 45.71326057 54.24508376 48.97341593 54.1875 53.1875 C54.18105469 54.23292969 54.17460938 55.27835937 54.16796875 56.35546875 C54 59 54 59 53 61 C42.77 61 32.54 61 22 61 C22 97.63 22 134.26 22 172 C14.74 172 7.48 172 0 172 C0 135.37 0 98.74 0 61 C-7.59 61 -15.18 61 -23 61 C-23.0825 58.2775 -23.165 55.555 -23.25 52.75 C-23.28641602 51.89889648 -23.32283203 51.04779297 -23.36035156 50.17089844 C-23.41499924 46.44956771 -23.43346105 44.58906245 -21.171875 41.515625 C-14.69904869 36.99861671 -10.13525379 39 -1 39 C-0.67 26.13 -0.34 13.26 0 0 Z " fill="#221F20" transform="translate(1492,336)"/>
<path d="M0 0 C7.26 0 14.52 0 22 0 C22 12.87 22 25.74 22 39 C31.57 39 41.14 39 51 39 C51 46.26 51 53.52 51 61 C41.43 61 31.86 61 22 61 C22 97.63 22 134.26 22 172 C14.74 172 7.48 172 0 172 C0 135.37 0 98.74 0 61 C-4.95 61 -9.9 61 -15 61 C-18.96 60.505 -18.96 60.505 -23 60 C-23 53.07 -23 46.14 -23 39 C-15.41 39 -7.82 39 0 39 C0 26.13 0 13.26 0 0 Z " fill="#221F20" transform="translate(886,107)"/>
<path d="M0 0 C0.66 0 1.32 0 2 0 C1.76603516 0.96099609 1.76603516 0.96099609 1.52734375 1.94140625 C-0.25402539 9.50025848 -0.25402539 9.50025848 1 17 C3.74254148 19.70605534 6.82564826 21.82987991 10 24 C22.75542895 32.80211963 29.89717263 45.0649337 36 59 C36 59.66 36 60.32 36 61 C32.06746752 59.64034781 29.39854097 57.88983054 26.25 55.1875 C21.26654317 51.0073873 16.1718355 47.00714817 11 43.0625 C10.25782227 42.49490967 9.51564453 41.92731934 8.75097656 41.3425293 C2.88160461 36.53722803 2.88160461 36.53722803 -4.1875 34.375 C-5.445625 34.25125 -6.70375 34.1275 -8 34 C-8.23707169 34.8452121 -8.47414337 35.69042419 -8.71839905 36.56124878 C-9.25078942 38.4593362 -9.78318194 40.35742301 -10.31560326 42.25550175 C-11.40448886 46.13743711 -12.49317311 50.0194288 -13.58155823 53.90150452 C-15.84590518 61.97724995 -18.11172173 70.05257277 -20.38354111 78.12621975 C-21.71364183 82.85342023 -23.04263711 87.580931 -24.37109375 92.30859375 C-24.64150482 93.27086695 -24.91191589 94.23314014 -25.19052124 95.22457314 C-29.06923604 109.03508851 -32.89210058 122.86006095 -36.67770958 136.69636536 C-38.23333281 142.37387265 -39.79914853 148.04857783 -41.36541843 153.72315598 C-42.86888414 159.17485699 -44.35531949 164.6308527 -45.83014202 170.09036732 C-46.75165052 173.4854907 -47.68912727 176.87604839 -48.63114738 180.26553154 C-49.06501946 181.83955096 -49.49215781 183.41544417 -49.91208076 184.99324226 C-50.48572919 187.1452828 -51.08275718 189.28945869 -51.68603516 191.43334961 C-52.01415192 192.63608017 -52.34226868 193.83881073 -52.68032837 195.07798767 C-54.24592111 198.54451766 -55.57206874 199.46969719 -59 201 C-61.12817383 201.34057617 -61.12817383 201.34057617 -63.20703125 201.29296875 C-63.95791016 201.28330078 -64.70878906 201.27363281 -65.48242188 201.26367188 C-66.25134766 201.23853516 -67.02027344 201.21339844 -67.8125 201.1875 C-68.60076172 201.17396484 -69.38902344 201.16042969 -70.20117188 201.14648438 C-72.13441169 201.11133456 -74.06729682 201.05753361 -76 201 C-72.98897112 173.67132834 -66.38874209 147.14662205 -58 121 C-57.68981934 120.03223633 -57.37963867 119.06447266 -57.06005859 118.06738281 C-44.94780738 80.80187379 -27.9975093 45.09184493 -8 11.4375 C-7.4755127 10.55336426 -7.4755127 10.55336426 -6.94042969 9.65136719 C-4.86084212 6.21913649 -2.67713968 2.99505002 0 0 Z " fill="#597CEB" transform="translate(172,126)"/>
<path d="M0 0 C-1.52455283 3.65726061 -3.70697981 5.84997926 -6.5625 8.5625 C-10.92465906 12.83051175 -14.82235307 17.27890971 -18.6015625 22.06640625 C-20.62191634 24.53755565 -22.69911619 26.90436419 -24.8359375 29.2734375 C-28.79441835 33.70570448 -32.447015 38.30125591 -36 43.0625 C-36.63446045 43.91175049 -37.2689209 44.76100098 -37.92260742 45.63598633 C-54.8520729 68.54348158 -69.16897626 92.61144617 -82 118 C-82.37898438 118.74717285 -82.75796875 119.4943457 -83.1484375 120.26416016 C-97.41379952 148.65410759 -108.31561143 180.16823777 -113.20703125 211.6015625 C-113.31387741 212.27852173 -113.42072357 212.95548096 -113.5308075 213.6529541 C-114.07021594 217.07716348 -114.59022085 220.50218098 -115.07495117 223.93457031 C-115.26677979 225.19108398 -115.4586084 226.44759766 -115.65625 227.7421875 C-115.81931641 228.8751123 -115.98238281 230.00803711 -116.15039062 231.17529297 C-117 234 -117 234 -118.88183594 235.87280273 C-121.90073695 237.47933408 -124.35913245 237.28922603 -127.75 237.1875 C-128.92046875 237.16042969 -130.0909375 237.13335937 -131.296875 237.10546875 C-132.18890625 237.07066406 -133.0809375 237.03585937 -134 237 C-134.2713674 230.14180559 -133.26404082 223.84452489 -131.9375 217.125 C-131.71416992 215.98804688 -131.49083984 214.85109375 -131.26074219 213.6796875 C-120.34736248 159.75125878 -98.04596007 107.13339348 -65 63 C-64.60248535 62.46503906 -64.2049707 61.93007812 -63.79541016 61.37890625 C-54.95788881 49.51493394 -45.32162894 38.39173492 -35.25 27.5625 C-34.64841064 26.91240967 -34.04682129 26.26231934 -33.42700195 25.5925293 C-29.19436687 21.08801524 -24.71330523 16.99507011 -20 13 C-19.44683105 12.52570557 -18.89366211 12.05141113 -18.32373047 11.56274414 C-16.82704169 10.28352899 -15.31995946 9.01650491 -13.8125 7.75 C-12.33716797 6.50476563 -12.33716797 6.50476563 -10.83203125 5.234375 C-4.19755245 0 -4.19755245 0 0 0 Z " fill="#5A7AEC" transform="translate(162,90)"/>
<path d="M0 0 C0 3 0 3 -1.28515625 4.54296875 C-1.87167969 5.08566406 -2.45820312 5.62835938 -3.0625 6.1875 C-6.96426581 9.9335067 -10.48777125 13.88979884 -14 18 C-14.81339844 18.93585938 -15.62679687 19.87171875 -16.46484375 20.8359375 C-57.53527697 68.36747853 -89.32640774 128.60123973 -96.91113281 191.45141602 C-98.02810954 200.3800697 -98.02810954 200.3800697 -100 204 C-103.73844251 206.73544574 -106.39596601 207.17419818 -110.875 206.6875 C-112.25089407 206.46376384 -113.6260648 206.23546643 -115 206 C-114.56858088 196.29653035 -112.66128048 187.14415781 -110.375 177.75 C-110.19570953 177.00500244 -110.01641907 176.26000488 -109.83169556 175.49243164 C-108.58540038 170.32038599 -107.30524843 165.15746737 -106 160 C-105.70818848 158.84693359 -105.41637695 157.69386719 -105.11572266 156.50585938 C-92.00979318 105.90393634 -62.91031602 58.68432864 -27 21 C-26.18015625 20.12730469 -25.3603125 19.25460938 -24.515625 18.35546875 C-17.58563414 11.17167249 -9.58008996 3.35041397 0 0 Z " fill="#5A7AEC" transform="translate(115,121)"/>
<path d="M0 0 C4.95 0 9.9 0 15 0 C15 23.1 15 46.2 15 70 C10.05 70 5.1 70 0 70 C0 46.9 0 23.8 0 0 Z " fill="#221F20" transform="translate(953,96)"/>
</svg>
